<svg id="Layer_1" data-name="Layer 1" xmlns="http://www.w3.org/2000/svg" viewBox="0 0 38.36 47.86"><defs><style>.cls-1{fill:#f40303;}</style></defs><path class="cls-1" d="M15,48.51l4.24.71.22-.58-5.35-2.72.39-1.07,8.11,2.53c-2.47-3.19-4.86-6.48-9.35-4.29l-3.09,7.84c-2.29-3.48,3.51-7.38-1.42-10.17L4.43,46.51,3.69,46A35.07,35.07,0,0,0,6.3,41.37,5,5,0,0,0,6.45,38c-3.18-7.79.35-13.33,8.73-13.53l1.45-.07c1.35-3.8,2.89-7.66,4-11.65.38-1.34-.49-3-.34-4.46.12-1.17.69-3,1.48-3.24a4.92,4.92,0,0,1,3.83.85c.39.28-.1,2.28-.59,3.29-1.42,3-3,5.81-4.59,8.71l1.37.81c2.28-3.31,4.6-6.6,6.78-10,.29-.45-.36-1.43-.16-2,.41-1.27.82-2.87,1.78-3.51.58-.39,2.19.77,3.34,1.23A17.49,17.49,0,0,1,31.85,8c-1.39,1.79-3.06,3.37-5.21,5.68,2,.17,3,.34,4,.33C38.7,13.92,41.91,17.62,42,26.27c0,3.74.66,7.28-1.59,10.53-1,1.42-2.16,2.71-3.25,4.06l-1-.7,3.19-5-1-.51a39.57,39.57,0,0,1-2.79,5.93c-1.44,2.14-3,4.71-5.12,5.8a66.73,66.73,0,0,1-12.48,4.31c-1,.28-2.39-.74-3.6-1.17Zm8.79-25.87c-.08,4.07,4.9,8.6,9.32,8.49,2.66-.07,7.82-4.82,7.76-7.15-.11-4.87-3.76-8.36-8.92-8.51C28,15.35,23.82,19,23.75,22.64Zm10,15c.07-3.83-3.92-7.07-8.61-7a6.25,6.25,0,0,0-6,6.33c0,5.1,3.29,8.78,8,8.92,3,.12,6.52-4.26,6.6-8.24ZM17.86,40.09c-1.7-3.31-.76-5.92,1.84-8.5,1.72-1.72.09-3.09-1-3.68l-7.12,7.82-.86-.65,6-8.7c-4.22-.26-7.61.53-8.79,3.85A9,9,0,0,0,9,37.4c1.77,2.59,4.64,4.87,8.84,2.7Zm6.06-10.87L21.4,21.14l-2.19,4Zm12.46,7.11L39,29.51l-5,2.91Z" transform="translate(-3.69 -3.07)"/></svg>